<svg width="494" height="232" viewBox="0 0 494 232" fill="none" xmlns="http://www.w3.org/2000/svg">
<path d="M23.3098 90.7926C21.6929 95.8913 17.4262 99.1563 12.0366 99.1563C5.38946 99.1563 -0.00012207 94.147 -0.00012207 87.796C-0.00012207 85.7834 0.493923 83.5471 1.25745 81.5344L24.8369 19.9922C28.1155 11.4943 34.3585 6.75342 42.6225 6.75342C50.8865 6.75342 57.3091 11.4943 60.4081 19.9922L83.6282 81.5792C84.6163 83.9496 85.0205 86.1859 85.0205 88.1985C85.0205 94.0576 79.6309 99.0668 73.1185 99.0668C67.8637 99.0668 63.5969 95.9361 61.8453 90.8374L59.1954 82.742H26.0944L23.3547 90.8374L23.3098 90.7926ZM32.9661 61.5869H51.9195L42.6225 31.1288L32.9661 61.5869Z" fill="white"/>
<path d="M129.171 11.3603C129.171 5.00926 134.425 0 140.713 0C147.001 0 152.256 5.14343 152.256 11.4945V87.4383C152.256 93.7894 147.136 98.7986 140.713 98.7986C138.333 98.7986 134.695 96.0704 130.698 91.4189C124.679 97.5463 121.535 98.9328 114.125 98.9328C96.6983 98.9328 82.7752 83.3236 82.7752 64.0916C82.7752 44.8597 96.6983 29.3847 114.484 29.3847C120.278 29.3847 123.152 30.5028 129.171 34.4834V11.3603ZM105.591 64.3153C105.591 72.6789 110.621 78.8063 117.493 78.8063C124.365 78.8063 129.799 72.6789 129.799 64.1811C129.799 55.6832 124.769 49.4664 117.763 49.4664C110.756 49.4664 105.591 55.728 105.591 64.3153Z" fill="white"/>
<path d="M189.489 29.2063C208.802 29.2063 224.207 44.6813 224.207 64.1816C224.207 83.682 208.802 99.2912 189.489 99.2912C170.177 99.2912 154.502 83.8161 154.502 64.0922C154.502 44.3682 169.907 29.251 189.489 29.251V29.2063ZM177.183 64.3158C177.183 73.1715 182.213 79.5672 189.22 79.5672C196.226 79.5672 201.526 73.3056 201.526 64.45C201.526 55.5943 196.361 49.467 189.22 49.467C182.079 49.467 177.183 55.818 177.183 64.3158Z" fill="white"/>
<path d="M249.403 116.376C249.403 122.637 244.283 127.736 237.995 127.736C231.707 127.736 226.587 122.637 226.587 116.242V40.9686C226.587 34.6175 231.707 29.4741 238.264 29.4741C240.375 29.4741 243.923 31.8446 247.651 36.2277C254.029 30.7264 257.307 29.2505 264.449 29.2505C282.279 29.2505 295.798 44.3677 295.798 63.9575C295.798 83.5472 282.01 99.1564 263.955 99.1564C257.801 99.1564 255.062 98.1725 249.403 94.4155V116.376ZM248.909 64.6731C248.909 73.1709 253.939 79.2983 260.811 79.2983C267.682 79.2983 272.847 73.0368 272.847 64.5389C272.847 56.0411 267.817 49.9137 260.811 49.9137C253.804 49.9137 248.909 56.0411 248.909 64.6731Z" fill="white"/>
<path d="M303.838 49.8247C298.089 49.8247 293.418 45.4416 293.418 39.8509C293.418 34.618 298.044 30.2349 303.838 30.2349H306.218L306.083 21.5134C306.083 15.1624 311.203 10.019 317.626 10.019C324.048 10.019 329.169 15.1624 329.169 21.6476V30.2796H332.807C338.331 30.2796 342.822 34.7969 342.822 40.0298C342.822 45.6652 338.331 50.0036 332.807 50.0036H329.034L329.169 87.3494C329.169 93.8346 324.004 98.978 317.626 98.978C311.248 98.978 306.218 93.8793 306.218 87.3494V49.8694H303.838V49.8247Z" fill="white"/>
<path d="M447.289 29.3405C453.577 29.3405 458.697 34.4392 458.697 40.8349V87.5283C458.697 93.8794 453.577 98.8886 447.155 98.8886C444.774 98.8886 441.136 96.2498 437.139 91.7773C431.255 97.6363 428.336 99.0228 420.476 99.0228C403.05 99.0228 389.262 83.7714 389.262 64.6736C389.262 45.5758 403.185 29.2063 420.97 29.2063C427.977 29.2063 431.255 30.5928 437.274 35.9598C441.406 31.7109 444.909 29.3405 447.289 29.3405ZM412.033 64.6736C412.033 72.9031 417.153 79.1647 424.204 79.1647C431.255 79.1647 436.241 72.9031 436.241 64.45C436.241 55.9969 431.345 49.7353 424.204 49.7353C417.063 49.7353 412.033 55.9969 412.033 64.7183V64.6736Z" fill="white"/>
<path d="M89.4219 191.246C89.4219 197.865 84.0324 203.098 77.3852 203.098C70.7381 203.098 65.4832 197.597 65.4832 191.112V122.906C65.4832 116.286 70.8728 110.785 77.5199 110.785C84.1671 110.785 89.4219 116.286 89.4219 123.04V145.402H123.646V123.04C123.646 116.286 129.035 110.785 135.683 110.785C142.33 110.785 147.719 116.286 147.719 122.906V191.112C147.719 197.597 142.33 203.098 135.683 203.098C129.035 203.098 123.781 197.865 123.781 191.246V166.513H89.4219V191.246Z" fill="black"/>
<path d="M152.121 149.025C151.627 147.907 151.223 146.521 151.223 145.045C151.223 138.56 156.253 133.684 162.9 133.684C168.065 133.684 171.928 136.681 174.083 142.406L183.875 169.241L193.531 142.495C195.642 136.502 198.92 133.774 204.31 133.774C210.957 133.774 215.853 138.515 215.853 144.776C215.853 146.521 215.583 148.131 214.865 149.786L183.875 223.359C181.629 228.994 177.856 231.723 172.826 231.723C166.673 231.723 161.687 227.116 161.687 221.346C161.687 219.736 162.047 217.992 162.676 216.471L171.973 196.255L152.166 149.025H152.121Z" fill="black"/>
<path d="M242.037 220.452C242.037 226.714 236.916 231.813 230.629 231.813C224.341 231.813 219.221 226.714 219.221 220.318V145.001C219.221 138.65 224.341 133.506 230.898 133.506C233.009 133.506 236.557 135.877 240.285 140.26C246.663 134.758 249.941 133.282 257.082 133.282C274.913 133.282 288.432 148.4 288.432 167.989C288.432 187.579 274.643 203.188 256.588 203.188C250.435 203.188 247.696 202.204 242.037 198.448V220.408V220.452ZM241.542 168.75C241.542 177.248 246.573 183.375 253.444 183.375C260.316 183.375 265.481 177.113 265.481 168.66C265.481 160.207 260.451 154.035 253.444 154.035C246.438 154.035 241.542 160.163 241.542 168.795V168.75Z" fill="black"/>
<path d="M316.773 136.77C320.905 134.668 326.07 133.416 331.055 133.416C346.101 133.416 355.892 142.898 355.892 157.389V191.738C355.892 198.089 350.772 203.367 344.215 203.367C337.657 203.367 332.807 198.134 332.807 191.738V161.906C332.807 156.673 328.54 152.29 323.42 152.29C318.3 152.29 313.898 156.673 313.898 161.772V191.738C313.898 197.999 308.643 203.098 302.355 203.098C296.068 203.098 290.813 197.955 290.813 191.604V115.436C290.813 109.085 295.933 103.942 302.355 103.942C308.778 103.942 313.898 109.04 313.898 115.436V138.559C315.021 137.665 316.144 137.173 316.773 136.815V136.77Z" fill="black"/>
<path d="M385.221 179.259C387.601 182.122 392.497 184 397.617 184C401.749 184 405.522 183.24 410.283 181.362C413.921 179.751 415.942 179.125 417.559 179.125C422.589 179.125 426.586 183.016 426.586 187.623C426.586 196.255 412.798 203.098 396 203.098C373.678 203.098 358.138 188.875 358.138 168.525C358.138 148.175 373.454 133.55 393.126 133.55C411.316 133.55 427.35 148.533 427.35 165.663C427.35 172.014 424.61 174.519 417.559 174.519H382.436C383.425 176.621 384.323 178.275 385.176 179.259H385.221ZM382.347 161.772H403.905C402.782 154.795 399.144 150.903 393.35 150.903C387.557 150.903 383.963 154.66 382.302 161.772H382.347Z" fill="black"/>
<path d="M453.084 137.665C457.216 135.027 463.01 133.416 468.4 133.416C483.176 133.416 494 143.39 494 157.389V191.604C494 197.955 488.88 203.099 482.457 203.099C476.035 203.099 470.78 197.955 470.78 191.738V161.907C470.78 156.674 466.513 152.291 461.393 152.291C456.273 152.291 451.737 156.674 451.737 161.907V191.649C451.737 197.911 446.617 203.009 440.329 203.009C434.041 203.009 428.921 197.911 428.921 191.515V145.179C428.921 138.828 434.041 133.551 440.329 133.551C442.575 133.551 446.078 136.189 449.85 140.438C451.243 139.186 452.5 138.336 453.129 137.71L453.084 137.665Z" fill="black"/>
<path d="M383.917 55.0121H336.713V74.244H383.917V55.0121Z" fill="white"/>
<path d="M60.3184 147.326H6.01837V166.558H60.3184V147.326Z" fill="black"/>
</svg>
