<svg width="304" height="304" viewBox="0 0 304 304" fill="none" xmlns="http://www.w3.org/2000/svg">
<rect x="0.645081" y="0.812744" width="302.71" height="302.71" rx="12.6122" fill="white"/>
<path d="M46.9179 68.6882C46.1584 71.0834 44.154 72.6172 41.6222 72.6172C38.4996 72.6172 35.9677 70.264 35.9677 67.2805C35.9677 66.3351 36.1998 65.2845 36.5585 64.3391L47.6353 35.4286C49.1755 31.4366 52.1082 29.2095 55.9904 29.2095C59.8725 29.2095 62.8896 31.4366 64.3454 35.4286L75.2535 64.3601C75.7176 65.4736 75.9075 66.5242 75.9075 67.4696C75.9075 70.222 73.3757 72.5752 70.3164 72.5752C67.8478 72.5752 65.8434 71.1045 65.0206 68.7093L63.7758 64.9063H48.226L46.939 68.7093L46.9179 68.6882ZM51.4541 54.9684H60.3578L55.9904 40.6602L51.4541 54.9684Z" fill="#00C9FF"/>
<path d="M96.6477 31.3738C96.6477 28.3903 99.1162 26.0371 102.07 26.0371C105.024 26.0371 107.492 28.4533 107.492 31.4368V67.1127C107.492 70.0962 105.087 72.4493 102.07 72.4493C100.952 72.4493 99.2428 71.1677 97.365 68.9826C94.5378 71.861 93.0609 72.5124 89.5796 72.5124C81.3933 72.5124 74.8527 65.1797 74.8527 56.1452C74.8527 47.1107 81.3933 39.841 89.7484 39.841C92.4701 39.841 93.8204 40.3663 96.6477 42.2362V31.3738ZM85.5709 56.2502C85.5709 60.1792 87.9339 63.0576 91.162 63.0576C94.3901 63.0576 96.943 60.1792 96.943 56.1872C96.943 52.1952 94.58 49.2747 91.2886 49.2747C87.9972 49.2747 85.5709 52.2162 85.5709 56.2502Z" fill="#00C9FF"/>
<path d="M124.983 39.7571C134.056 39.7571 141.293 47.0267 141.293 56.1873C141.293 65.3479 134.056 72.6806 124.983 72.6806C115.911 72.6806 108.547 65.4109 108.547 56.1453C108.547 46.8796 115.784 39.7781 124.983 39.7781V39.7571ZM119.202 56.2503C119.202 60.4104 121.565 63.4149 124.857 63.4149C128.148 63.4149 130.638 60.4735 130.638 56.3134C130.638 52.1533 128.211 49.2748 124.857 49.2748C121.502 49.2748 119.202 52.2583 119.202 56.2503Z" fill="#00C9FF"/>
<path d="M153.128 80.7066C153.128 83.648 150.723 86.0432 147.769 86.0432C144.816 86.0432 142.41 83.648 142.41 80.6435V45.2828C142.41 42.2993 144.816 39.8831 147.896 39.8831C148.888 39.8831 150.554 40.9967 152.306 43.0557C155.302 40.4714 156.842 39.7781 160.197 39.7781C168.573 39.7781 174.923 46.8796 174.923 56.0822C174.923 65.2848 168.446 72.6175 159.964 72.6175C157.074 72.6175 155.787 72.1553 153.128 70.3904V80.7066ZM152.896 56.4184C152.896 60.4104 155.259 63.2888 158.488 63.2888C161.716 63.2888 164.142 60.3474 164.142 56.3554C164.142 52.3634 161.779 49.4849 158.488 49.4849C155.196 49.4849 152.896 52.3634 152.896 56.4184Z" fill="#00C9FF"/>
<path d="M178.701 49.4428C176 49.4428 173.806 47.3837 173.806 44.7574C173.806 42.2992 175.979 40.2402 178.701 40.2402H179.819L179.756 36.1431C179.756 33.1596 182.161 30.7434 185.178 30.7434C188.195 30.7434 190.6 33.1596 190.6 36.2061V40.2612H192.309C194.904 40.2612 197.014 42.3832 197.014 44.8415C197.014 47.4888 194.904 49.5268 192.309 49.5268H190.537L190.6 67.0706C190.6 70.1171 188.174 72.5333 185.178 72.5333C182.182 72.5333 179.819 70.1381 179.819 67.0706V49.4638H178.701V49.4428Z" fill="#00C9FF"/>
<path d="M246.09 39.8201C249.043 39.8201 251.449 42.2153 251.449 45.2198V67.1548C251.449 70.1383 249.043 72.4915 246.026 72.4915C244.908 72.4915 243.199 71.2518 241.321 69.1508C238.557 71.9032 237.186 72.5545 233.494 72.5545C225.307 72.5545 218.83 65.3899 218.83 56.4184C218.83 47.4469 225.371 39.7571 233.726 39.7571C237.017 39.7571 238.557 40.4084 241.385 42.9297C243.326 40.9337 244.971 39.8201 246.09 39.8201ZM229.527 56.4184C229.527 60.2844 231.932 63.2258 235.245 63.2258C238.557 63.2258 240.899 60.2844 240.899 56.3134C240.899 52.3424 238.6 49.4009 235.245 49.4009C231.89 49.4009 229.527 52.3424 229.527 56.4394V56.4184Z" fill="#00C9FF"/>
<path d="M77.9751 115.878C77.9751 118.988 75.4432 121.446 72.3206 121.446C69.198 121.446 66.7295 118.861 66.7295 115.815V83.7739C66.7295 80.6644 69.2613 78.0801 72.3839 78.0801C75.5065 78.0801 77.9751 80.6644 77.9751 83.837V94.3422H94.0523V83.837C94.0523 80.6644 96.5841 78.0801 99.7067 78.0801C102.829 78.0801 105.361 80.6644 105.361 83.7739V115.815C105.361 118.861 102.829 121.446 99.7067 121.446C96.5841 121.446 94.1156 118.988 94.1156 115.878V104.259H77.9751V115.878Z" fill="black"/>
<path d="M107.429 96.0443C107.197 95.519 107.007 94.8677 107.007 94.1743C107.007 91.1278 109.37 88.8376 112.492 88.8376C114.919 88.8376 116.733 90.2454 117.746 92.9347L122.345 105.541L126.882 92.9767C127.873 90.1613 129.414 88.8797 131.945 88.8797C135.068 88.8797 137.368 91.1068 137.368 94.0483C137.368 94.8677 137.241 95.624 136.904 96.4014L122.345 130.964C121.291 133.611 119.518 134.893 117.155 134.893C114.265 134.893 111.923 132.729 111.923 130.018C111.923 129.262 112.092 128.442 112.387 127.728L116.754 118.231L107.45 96.0443H107.429Z" fill="black"/>
<path d="M149.668 129.598C149.668 132.539 147.263 134.935 144.309 134.935C141.355 134.935 138.95 132.539 138.95 129.535V94.1532C138.95 91.1697 141.355 88.7535 144.436 88.7535C145.427 88.7535 147.094 89.8671 148.845 91.9261C151.841 89.3418 153.382 88.6484 156.736 88.6484C165.113 88.6484 171.463 95.75 171.463 104.953C171.463 114.155 164.986 121.488 156.504 121.488C153.614 121.488 152.327 121.026 149.668 119.261V129.577V129.598ZM149.436 105.31C149.436 109.302 151.799 112.18 155.027 112.18C158.255 112.18 160.682 109.239 160.682 105.268C160.682 101.297 158.319 98.3973 155.027 98.3973C151.736 98.3973 149.436 101.276 149.436 105.331V105.31Z" fill="black"/>
<path d="M184.777 90.287C186.718 89.2995 189.144 88.7112 191.486 88.7112C198.554 88.7112 203.154 93.1654 203.154 99.9728V116.109C203.154 119.092 200.748 121.572 197.668 121.572C194.588 121.572 192.309 119.113 192.309 116.109V102.095C192.309 99.6366 190.305 97.5776 187.899 97.5776C185.494 97.5776 183.426 99.6366 183.426 102.032V116.109C183.426 119.05 180.958 121.446 178.004 121.446C175.05 121.446 172.582 119.029 172.582 116.046V80.2649C172.582 77.2814 174.987 74.8652 178.004 74.8652C181.021 74.8652 183.426 77.2604 183.426 80.2649V91.1274C183.954 90.7072 184.481 90.4761 184.777 90.308V90.287Z" fill="black"/>
<path d="M216.932 110.247C218.05 111.592 220.35 112.474 222.755 112.474C224.696 112.474 226.468 112.117 228.705 111.235C230.414 110.478 231.363 110.184 232.123 110.184C234.486 110.184 236.363 112.012 236.363 114.176C236.363 118.231 229.886 121.446 221.995 121.446C211.509 121.446 204.209 114.764 204.209 105.205C204.209 95.6449 211.404 88.7744 220.645 88.7744C229.19 88.7744 236.722 95.8129 236.722 103.86C236.722 106.843 235.435 108.02 232.123 108.02H215.623C216.088 109.008 216.51 109.785 216.91 110.247H216.932ZM215.581 102.032H225.709C225.181 98.7544 223.472 96.9265 220.75 96.9265C218.029 96.9265 216.341 98.6914 215.56 102.032H215.581Z" fill="black"/>
<path d="M248.811 90.7074C250.752 89.4678 253.474 88.7114 256.006 88.7114C262.947 88.7114 268.032 93.3968 268.032 99.9731V116.046C268.032 119.03 265.627 121.446 262.61 121.446C259.593 121.446 257.124 119.03 257.124 116.109V102.095C257.124 99.6369 255.12 97.5779 252.715 97.5779C250.309 97.5779 248.178 99.6369 248.178 102.095V116.067C248.178 119.009 245.773 121.404 242.819 121.404C239.866 121.404 237.46 119.009 237.46 116.004V94.2372C237.46 91.2537 239.866 88.7745 242.819 88.7745C243.874 88.7745 245.52 90.0141 247.292 92.0101C247.946 91.4218 248.537 91.0226 248.832 90.7284L248.811 90.7074Z" fill="black"/>
<path d="M216.319 51.8799H194.144V60.9144H216.319V51.8799Z" fill="#00C9FF"/>
<path d="M64.3034 95.2458H38.7951V104.28H64.3034V95.2458Z" fill="black"/>
<path d="M213.814 161.813C213.357 161.698 212.889 161.646 212.418 161.646H32.6045C29.1217 161.646 26.2984 164.469 26.2984 167.952V229.305C26.2984 232.788 29.1217 235.611 32.6045 235.611H271.364C274.847 235.611 277.67 232.788 277.67 229.305V217.782C277.67 217.764 277.67 217.748 277.67 217.73C277.668 217.445 277.615 214.828 276.283 212.553C275.174 210.661 241.175 180.243 226.719 167.351C223.433 164.413 216.09 162.388 213.814 161.813Z" fill="black"/>
<path d="M94.2026 194.373V184.506H97.6987C98.3949 184.506 99.0306 184.601 99.6057 184.793C100.181 184.975 100.64 185.293 100.983 185.747C101.336 186.19 101.513 186.801 101.513 187.578C101.513 188.335 101.336 188.95 100.983 189.424C100.64 189.898 100.181 190.252 99.6057 190.484C99.0306 190.706 98.3949 190.817 97.6987 190.817H96.4274V194.373H94.2026ZM96.4274 189.046H97.5171C98.1023 189.046 98.5463 188.925 98.849 188.683C99.1618 188.43 99.3182 188.062 99.3182 187.578C99.3182 187.094 99.1618 186.756 98.849 186.564C98.5463 186.372 98.1023 186.276 97.5171 186.276H96.4274V189.046ZM97.2901 190.242L98.8338 188.804L101.982 194.373H99.4846L97.2901 190.242ZM104.367 194.373V184.506H110.905V186.382H106.607V188.365H110.255V190.226H106.607V192.497H111.057V194.373H104.367ZM113.866 194.373V184.506H116.59C117.549 184.506 118.381 184.677 119.087 185.02C119.804 185.363 120.359 185.898 120.752 186.624C121.146 187.341 121.342 188.264 121.342 189.394C121.342 190.524 121.146 191.457 120.752 192.194C120.369 192.93 119.829 193.48 119.133 193.844C118.437 194.197 117.634 194.373 116.726 194.373H113.866ZM116.106 192.572H116.469C116.994 192.572 117.448 192.471 117.831 192.27C118.215 192.068 118.512 191.735 118.724 191.271C118.946 190.807 119.057 190.181 119.057 189.394C119.057 188.607 118.946 187.992 118.724 187.548C118.512 187.094 118.215 186.776 117.831 186.594C117.448 186.402 116.994 186.307 116.469 186.307H116.106V192.572ZM124.03 194.373V184.506H130.569V186.382H126.27V188.365H129.918V190.226H126.27V192.497H130.72V194.373H124.03ZM133.862 194.373V184.506H140.4V186.382H136.102V188.365H139.749V190.226H136.102V192.497H140.552V194.373H133.862ZM143.179 194.373V184.506H145.51L146.478 188.002L146.811 189.364H146.872L147.205 188.002L148.173 184.506H150.504V194.373H148.628V191.316C148.628 191.044 148.638 190.706 148.658 190.302C148.678 189.888 148.703 189.46 148.733 189.016C148.764 188.572 148.794 188.148 148.824 187.744C148.865 187.341 148.895 187.008 148.915 186.745H148.87L148.113 189.379L147.356 191.755H146.267L145.495 189.379L144.783 186.745H144.738C144.758 187.008 144.783 187.341 144.814 187.744C144.854 188.148 144.889 188.572 144.92 189.016C144.95 189.46 144.975 189.888 144.995 190.302C145.015 190.706 145.025 191.044 145.025 191.316V194.373H143.179ZM152.269 194.373L155.341 184.506H158.005L161.077 194.373H158.716L157.445 189.379C157.324 188.884 157.193 188.36 157.052 187.805C156.91 187.25 156.779 186.715 156.658 186.201H156.598C156.476 186.715 156.35 187.25 156.219 187.805C156.088 188.36 155.957 188.884 155.826 189.379L154.539 194.373H152.269ZM154.297 192.027V190.287H159.019V192.027H154.297ZM163.084 194.373V184.506H166.399C167.085 184.506 167.7 184.581 168.245 184.733C168.79 184.874 169.219 185.121 169.532 185.474C169.855 185.827 170.016 186.322 170.016 186.957C170.016 187.401 169.88 187.83 169.607 188.244C169.335 188.657 168.906 188.94 168.321 189.091V189.152C169.027 189.273 169.562 189.525 169.925 189.909C170.288 190.282 170.47 190.802 170.47 191.467C170.47 192.133 170.304 192.683 169.971 193.117C169.638 193.541 169.184 193.859 168.609 194.071C168.044 194.272 167.403 194.373 166.686 194.373H163.084ZM165.309 188.471H166.293C166.838 188.471 167.231 188.365 167.473 188.153C167.716 187.931 167.837 187.633 167.837 187.26C167.837 186.897 167.711 186.639 167.458 186.488C167.216 186.327 166.833 186.246 166.308 186.246H165.309V188.471ZM165.309 192.633H166.505C167.11 192.633 167.559 192.522 167.852 192.3C168.144 192.078 168.291 191.745 168.291 191.301C168.291 190.867 168.144 190.554 167.852 190.363C167.559 190.171 167.11 190.075 166.505 190.075H165.309V192.633ZM173.415 194.373V184.506H175.64V192.497H180.029V194.373H173.415ZM183.02 194.373V184.506H189.558V186.382H185.26V188.365H188.907V190.226H185.26V192.497H189.71V194.373H183.02ZM94.7324 209.373V199.506H101.286V201.382H96.9571V203.668H100.65V205.544H96.9571V209.373H94.7324ZM107.515 209.555C106.728 209.555 106.037 209.358 105.442 208.965C104.846 208.571 104.382 207.996 104.049 207.239C103.716 206.472 103.55 205.524 103.55 204.394C103.55 203.294 103.716 202.371 104.049 201.624C104.382 200.868 104.846 200.298 105.442 199.914C106.037 199.521 106.728 199.324 107.515 199.324C108.302 199.324 108.993 199.521 109.589 199.914C110.184 200.298 110.648 200.868 110.981 201.624C111.314 202.371 111.48 203.294 111.48 204.394C111.48 205.524 111.314 206.472 110.981 207.239C110.648 207.996 110.184 208.571 109.589 208.965C108.993 209.358 108.302 209.555 107.515 209.555ZM107.515 207.633C107.858 207.633 108.156 207.512 108.408 207.27C108.66 207.017 108.852 206.654 108.983 206.18C109.125 205.696 109.195 205.1 109.195 204.394C109.195 203.708 109.125 203.133 108.983 202.669C108.852 202.205 108.66 201.851 108.408 201.609C108.156 201.367 107.858 201.246 107.515 201.246C107.172 201.246 106.875 201.367 106.622 201.609C106.37 201.851 106.173 202.205 106.032 202.669C105.901 203.133 105.835 203.708 105.835 204.394C105.835 205.1 105.901 205.696 106.032 206.18C106.173 206.654 106.37 207.017 106.622 207.27C106.875 207.512 107.172 207.633 107.515 207.633ZM113.866 209.373V199.506H117.362C118.058 199.506 118.694 199.601 119.269 199.793C119.844 199.975 120.303 200.293 120.646 200.747C120.999 201.19 121.176 201.801 121.176 202.578C121.176 203.335 120.999 203.95 120.646 204.424C120.303 204.898 119.844 205.252 119.269 205.484C118.694 205.706 118.058 205.817 117.362 205.817H116.091V209.373H113.866ZM116.091 204.046H117.18C117.766 204.046 118.209 203.925 118.512 203.683C118.825 203.43 118.981 203.062 118.981 202.578C118.981 202.094 118.825 201.756 118.512 201.564C118.209 201.372 117.766 201.276 117.18 201.276H116.091V204.046ZM116.953 205.242L118.497 203.804L121.645 209.373H119.148L116.953 205.242ZM133.665 209.373V207.572H136.253V202.018H134.119V200.641C134.553 200.57 134.926 200.499 135.239 200.429C135.562 200.348 135.85 200.257 136.102 200.156C136.354 200.045 136.601 199.914 136.844 199.763H138.478V207.572H140.657V209.373H133.665ZM153.101 209.373V199.506H155.326V203.319H158.02V199.506H160.245V209.373H158.02V205.257H155.326V209.373H153.101ZM165.385 209.373V206.044L162.207 199.506H164.598L165.597 201.882C165.748 202.255 165.894 202.628 166.036 203.002C166.187 203.365 166.338 203.743 166.49 204.137H166.55C166.712 203.743 166.868 203.365 167.019 203.002C167.181 202.628 167.332 202.255 167.473 201.882L168.472 199.506H170.803L167.625 206.044V209.373H165.385ZM172.931 209.373V199.506H176.427C177.144 199.506 177.789 199.606 178.364 199.808C178.95 200 179.414 200.328 179.757 200.792C180.11 201.256 180.287 201.887 180.287 202.684C180.287 203.451 180.11 204.081 179.757 204.576C179.404 205.07 178.935 205.438 178.349 205.68C177.764 205.913 177.123 206.029 176.427 206.029H175.156V209.373H172.931ZM175.156 204.258H176.291C176.907 204.258 177.361 204.122 177.653 203.849C177.956 203.577 178.107 203.188 178.107 202.684C178.107 202.159 177.951 201.796 177.638 201.594C177.335 201.382 176.886 201.276 176.291 201.276H175.156V204.258ZM182.596 209.373V199.506H184.821V203.319H187.515V199.506H189.74V209.373H187.515V205.257H184.821V209.373H182.596ZM192.852 209.373V199.506H199.39V201.382H195.092V203.365H198.739V205.226H195.092V207.497H199.541V209.373H192.852ZM202.29 209.373V199.506H204.575L206.649 204.409L207.496 206.589H207.557C207.506 206.064 207.441 205.479 207.36 204.833C207.279 204.187 207.239 203.577 207.239 203.002V199.506H209.373V209.373H207.087L205.014 204.455L204.166 202.305H204.106C204.156 202.84 204.222 203.425 204.303 204.061C204.383 204.687 204.424 205.292 204.424 205.877V209.373H202.29Z" fill="#E2E2E2"/>
<path d="M43.4769 189.296V177.02H45.0728V189.296H43.4769ZM52.2494 186.374C51.652 186.374 51.1282 186.219 50.6781 185.908C50.228 185.588 49.876 185.126 49.6223 184.52C49.3768 183.915 49.2541 183.174 49.2541 182.299C49.2541 180.965 49.5282 179.962 50.0766 179.291C50.6249 178.62 51.3492 178.284 52.2494 178.284C53.1578 178.284 53.8821 178.62 54.4222 179.291C54.9705 179.962 55.2447 180.965 55.2447 182.299C55.2447 183.174 55.1178 183.915 54.8641 184.52C54.6186 185.126 54.2708 185.588 53.8207 185.908C53.3788 186.219 52.855 186.374 52.2494 186.374ZM52.2494 184.975C52.5113 184.975 52.7445 184.893 52.9491 184.729C53.1619 184.565 53.3297 184.287 53.4524 183.894C53.5752 183.502 53.6366 182.97 53.6366 182.299C53.6366 181.619 53.5752 181.091 53.4524 180.715C53.3297 180.33 53.1619 180.064 52.9491 179.917C52.7445 179.762 52.5113 179.684 52.2494 179.684C51.9957 179.684 51.7624 179.762 51.5497 179.917C51.3369 180.064 51.1691 180.33 51.0463 180.715C50.9236 181.091 50.8622 181.619 50.8622 182.299C50.8622 182.97 50.9236 183.502 51.0463 183.894C51.1691 184.287 51.3369 184.565 51.5497 184.729C51.7624 184.893 51.9957 184.975 52.2494 184.975ZM52.2494 183.207C51.9957 183.207 51.7788 183.121 51.5988 182.949C51.4187 182.777 51.3287 182.552 51.3287 182.274C51.3287 181.988 51.4187 181.762 51.5988 181.599C51.7788 181.427 51.9957 181.341 52.2494 181.341C52.5113 181.341 52.7281 181.427 52.9 181.599C53.0801 181.762 53.1701 181.988 53.1701 182.274C53.1701 182.552 53.0801 182.777 52.9 182.949C52.7281 183.121 52.5113 183.207 52.2494 183.207ZM57.4005 182.814V181.537H63.0474V182.814H57.4005ZM68.1984 186.374C67.601 186.374 67.0772 186.219 66.6271 185.908C66.177 185.588 65.8251 185.126 65.5714 184.52C65.3259 183.915 65.2031 183.174 65.2031 182.299C65.2031 180.965 65.4773 179.962 66.0256 179.291C66.5739 178.62 67.2982 178.284 68.1984 178.284C69.1068 178.284 69.8311 178.62 70.3713 179.291C70.9196 179.962 71.1937 180.965 71.1937 182.299C71.1937 183.174 71.0669 183.915 70.8132 184.52C70.5677 185.126 70.2199 185.588 69.7697 185.908C69.3278 186.219 68.804 186.374 68.1984 186.374ZM68.1984 184.975C68.4603 184.975 68.6936 184.893 68.8982 184.729C69.1109 184.565 69.2787 184.287 69.4015 183.894C69.5242 183.502 69.5856 182.97 69.5856 182.299C69.5856 181.619 69.5242 181.091 69.4015 180.715C69.2787 180.33 69.1109 180.064 68.8982 179.917C68.6936 179.762 68.4603 179.684 68.1984 179.684C67.9447 179.684 67.7115 179.762 67.4987 179.917C67.2859 180.064 67.1181 180.33 66.9954 180.715C66.8726 181.091 66.8113 181.619 66.8113 182.299C66.8113 182.97 66.8726 183.502 66.9954 183.894C67.1181 184.287 67.2859 184.565 67.4987 184.729C67.7115 184.893 67.9447 184.975 68.1984 184.975ZM68.1984 183.207C67.9447 183.207 67.7279 183.121 67.5478 182.949C67.3678 182.777 67.2777 182.552 67.2777 182.274C67.2777 181.988 67.3678 181.762 67.5478 181.599C67.7279 181.427 67.9447 181.341 68.1984 181.341C68.4603 181.341 68.6772 181.427 68.849 181.599C69.0291 181.762 69.1191 181.988 69.1191 182.274C69.1191 182.552 69.0291 182.777 68.849 182.949C68.6772 183.121 68.4603 183.207 68.1984 183.207ZM75.375 189.296V177.02H76.9709V189.296H75.375ZM41.5005 203.191L45.5393 192.511H47.0492L43.0104 203.191H41.5005ZM53.3788 203.424C52.5849 202.712 51.9548 201.89 51.4883 200.957C51.0218 200.016 50.7886 198.968 50.7886 197.814C50.7886 196.66 51.0218 195.613 51.4883 194.671C51.9548 193.73 52.5849 192.908 53.3788 192.204L54.3854 193.002C53.6488 193.714 53.1169 194.451 52.7895 195.212C52.4622 195.973 52.2985 196.84 52.2985 197.814C52.2985 198.78 52.4622 199.647 52.7895 200.417C53.1169 201.178 53.6488 201.914 54.3854 202.626L53.3788 203.424ZM67.069 203.424L66.0624 202.626C66.799 201.914 67.3309 201.178 67.6583 200.417C67.9856 199.647 68.1493 198.78 68.1493 197.814C68.1493 196.84 67.9856 195.973 67.6583 195.212C67.3309 194.451 66.799 193.714 66.0624 193.002L67.069 192.204C67.8629 192.908 68.493 193.73 68.9595 194.671C69.426 195.613 69.6593 196.66 69.6593 197.814C69.6593 198.968 69.426 200.016 68.9595 200.957C68.493 201.89 67.8629 202.712 67.069 203.424ZM77.4374 203.191L73.3986 192.511H74.9085L78.9473 203.191H77.4374ZM41.3287 218.24V216.89H47.2211V218.24H41.3287ZM49.475 218.191L53.5138 207.511H55.0237L50.985 218.191H49.475ZM69.4628 218.191L65.4241 207.511H66.934L70.9728 218.191H69.4628ZM73.2267 218.24V216.89H79.1192V218.24H73.2267Z" fill="#E2E2E2"/>
<path d="M227.123 167.325C219.436 160.905 214.728 161.647 210.488 161.647C213.127 161.647 220.323 161.647 220.323 172.09V180.151L231.403 170.899L227.123 167.325Z" fill="#FDB827"/>
<path d="M231.41 170.899L220.331 180.151V194.844L240.207 178.245C236.522 175.168 232.964 172.196 231.41 170.899Z" fill="#FDB827"/>
<path d="M240.2 178.245L220.324 194.844V209.536L248.997 185.591C244.599 181.918 243.885 181.323 240.2 178.245Z" fill="#FDB827"/>
<path d="M257.794 192.938L237.917 209.536H255.511L266.591 200.284C265.037 198.987 261.479 196.015 257.794 192.938Z" fill="#FDB827"/>
<path d="M266.591 200.284L255.511 209.536H265.164C277.67 209.536 277.67 215.546 277.67 217.75C277.67 214.209 278.558 210.278 270.87 203.858L266.591 200.284Z" fill="#FDB827"/>
<path d="M248.997 185.592L220.324 209.536H237.918L257.794 192.938C254.109 189.86 253.396 189.265 248.997 185.592Z" fill="#FDB827"/>
<path d="M227.123 167.325C219.436 160.905 214.728 161.647 210.488 161.647C213.127 161.647 220.323 161.647 220.323 172.09V180.151L231.403 170.899L227.123 167.325Z" fill="#00BA73"/>
<path d="M231.41 170.899L220.331 180.151V194.844L240.207 178.245C236.522 175.168 232.964 172.196 231.41 170.899Z" fill="#FFB803"/>
<path d="M240.2 178.245L220.324 194.844V209.536L248.997 185.591C244.599 181.918 243.885 181.323 240.2 178.245Z" fill="#FF8633"/>
<path d="M257.794 192.938L237.917 209.536H255.511L266.591 200.284C265.037 198.987 261.479 196.015 257.794 192.938Z" fill="#AD43ED"/>
<path d="M266.591 200.284L255.511 209.536H265.164C277.67 209.536 277.67 215.546 277.67 217.75C277.67 214.209 278.558 210.278 270.87 203.858L266.591 200.284Z" fill="#FE63FF"/>
<path d="M248.997 185.592L220.324 209.536H237.918L257.794 192.938C254.109 189.86 253.396 189.265 248.997 185.592Z" fill="#FE0000"/>
</svg>
