<svg width="502" height="153" viewBox="0 0 502 153" fill="none" xmlns="http://www.w3.org/2000/svg">
<g filter="url(#filter0_d_1_3)">
<path d="M372.498 0.450484C371.413 0.173204 370.305 0.0512085 369.185 0.0512085H19.5C11.2157 0.0512085 4.5 6.76694 4.5 15.0512V130C4.5 138.284 11.2157 145 19.5 145H482.438C490.723 145 497.438 138.284 497.438 130V110.072C497.438 110.029 497.439 109.987 497.438 109.944C497.433 109.321 497.311 104.237 494.719 99.8137C492.543 96.1044 425.871 36.4959 397.524 11.231C391.211 5.58946 377.258 1.66665 372.498 0.450484Z" fill="black"/>
<path d="M398.316 11.1791C383.241 -1.40148 374.01 0.051125 365.695 0.051125C370.87 0.051125 384.982 0.0511253 384.982 20.5172V36.3143L406.708 18.1827L398.316 11.1791Z" fill="#FDB827"/>
<path d="M406.724 18.1827L384.997 36.3143V65.1069L423.974 32.579C416.748 26.5482 409.77 20.7248 406.724 18.1827Z" fill="#FDB827"/>
<path d="M423.96 32.5791L384.982 65.107V93.8996L441.211 46.9754C432.585 39.7773 431.186 38.61 423.96 32.5791Z" fill="#FDB827"/>
<path d="M458.461 61.3715L419.483 93.8994H453.985L475.712 75.7678C472.665 73.2258 465.687 67.4024 458.461 61.3715Z" fill="#FDB827"/>
<path d="M475.712 75.7681L453.985 93.8997H472.915C497.439 93.8997 497.439 105.676 497.439 109.995C497.439 103.056 499.179 95.3523 484.104 82.7717L475.712 75.7681Z" fill="#FDB827"/>
<path d="M441.211 46.9755L384.982 93.8997H419.484L458.461 61.3718C451.235 55.3409 449.836 54.1736 441.211 46.9755Z" fill="#FDB827"/>
<path d="M398.316 11.1791C383.241 -1.40148 374.01 0.051125 365.695 0.051125C370.87 0.051125 384.982 0.0511253 384.982 20.5172V36.3143L406.708 18.1827L398.316 11.1791Z" fill="#00BA73"/>
<path d="M406.724 18.1827L384.997 36.3143V65.1069L423.974 32.579C416.748 26.5482 409.77 20.7248 406.724 18.1827Z" fill="#FFB803"/>
<path d="M423.96 32.5791L384.982 65.107V93.8996L441.211 46.9754C432.585 39.7773 431.186 38.61 423.96 32.5791Z" fill="#FF8633"/>
<path d="M458.461 61.3715L419.483 93.8994H453.985L475.712 75.7678C472.665 73.2258 465.687 67.4024 458.461 61.3715Z" fill="#AD43ED"/>
<path d="M475.712 75.7681L453.985 93.8997H472.915C497.439 93.8997 497.439 105.676 497.439 109.995C497.439 103.056 499.179 95.3523 484.104 82.7717L475.712 75.7681Z" fill="#FE63FF"/>
<path d="M441.211 46.9755L384.982 93.8997H419.484L458.461 61.3718C451.235 55.3409 449.836 54.1736 441.211 46.9755Z" fill="#FE0000"/>
</g>
<defs>
<filter id="filter0_d_1_3" x="0.5" y="0" width="501" height="153" filterUnits="userSpaceOnUse" color-interpolation-filters="sRGB">
<feFlood flood-opacity="0" result="BackgroundImageFix"/>
<feColorMatrix in="SourceAlpha" type="matrix" values="0 0 0 0 0 0 0 0 0 0 0 0 0 0 0 0 0 0 127 0" result="hardAlpha"/>
<feOffset dy="4"/>
<feGaussianBlur stdDeviation="2"/>
<feComposite in2="hardAlpha" operator="out"/>
<feColorMatrix type="matrix" values="0 0 0 0 0 0 0 0 0 0 0 0 0 0 0 0 0 0 0.25 0"/>
<feBlend mode="normal" in2="BackgroundImageFix" result="effect1_dropShadow_1_3"/>
<feBlend mode="normal" in="SourceGraphic" in2="effect1_dropShadow_1_3" result="shape"/>
</filter>
</defs>
</svg>
