<svg width="25" height="25" viewBox="0 0 25 25" fill="none" xmlns="http://www.w3.org/2000/svg">
<g clip-path="url(#clip0_37_1457)">
<path fill-rule="evenodd" clip-rule="evenodd" d="M12.8716 24.8127C19.4986 24.8127 24.8716 19.4398 24.8716 12.8127C24.8716 6.1857 19.5 0.812744 12.8716 0.812744C6.24454 0.812744 0.871582 6.1857 0.871582 12.8127C0.871582 19.4398 6.24454 24.8127 12.8716 24.8127ZM20.7062 14.1232V14.8962C20.7062 14.9406 20.6791 14.98 20.6397 14.9973C20.398 15.1009 19.5707 15.4806 19.2268 15.9589C19.0354 16.2253 18.8539 16.5166 18.6715 16.8093L18.6715 16.8093C18.0172 17.8594 17.3514 18.9277 16.1791 18.9277H9.92463C7.70788 18.9277 5.91156 17.1253 5.91156 14.9011V14.8296C5.91156 14.7704 5.95964 14.7224 6.01884 14.7224H9.50543C9.57447 14.7224 9.62503 14.7865 9.61887 14.8543C9.5942 15.0811 9.63612 15.3129 9.74337 15.5237C9.95052 15.9441 10.3796 16.2068 10.8431 16.2068H12.5692V14.8592H10.8628C10.7753 14.8592 10.7235 14.7581 10.7741 14.6866C10.7844 14.6708 10.7954 14.6546 10.8071 14.6376C10.8163 14.6241 10.8259 14.6101 10.8357 14.5954C10.9972 14.3661 11.2278 14.0097 11.4571 13.6041C11.6137 13.3304 11.7653 13.0382 11.8874 12.7448C11.9103 12.6956 11.9289 12.6453 11.9472 12.596L11.9515 12.5845C11.9601 12.5602 11.9688 12.5364 11.9774 12.5128C12.002 12.4455 12.0257 12.3806 12.044 12.3158C12.0641 12.2553 12.0809 12.1924 12.0972 12.1318L12.0972 12.1318L12.1081 12.0914C12.166 11.8423 12.1907 11.5785 12.1907 11.3048C12.1907 11.1975 12.1857 11.0853 12.1759 10.9781C12.1709 10.8609 12.1561 10.7438 12.1413 10.6267C12.1315 10.5231 12.113 10.4208 12.0933 10.3136C12.0686 10.157 12.0341 10.0016 11.9946 9.84505L11.9811 9.78588C11.9722 9.75387 11.9639 9.72229 11.9555 9.69089L11.9555 9.69084C11.9359 9.61706 11.9165 9.54425 11.8923 9.46903C11.7949 9.13244 11.6827 8.80449 11.5644 8.49751C11.5214 8.37585 11.4722 8.25909 11.4231 8.14235L11.4226 8.14122C11.3654 8.0027 11.3075 7.87409 11.2524 7.75178L11.2081 7.65298C11.1735 7.58394 11.1439 7.52106 11.1144 7.45695C11.0811 7.3842 11.0465 7.31148 11.012 7.24241C11.0024 7.22171 10.9922 7.20157 10.9822 7.18178L10.9821 7.18167L10.9821 7.18158C10.9665 7.15076 10.9513 7.12077 10.9393 7.09079L10.7285 6.70119C10.6989 6.64818 10.7482 6.5853 10.8061 6.60132L12.1253 6.95887H12.129L12.1326 6.95976L12.134 6.9601L12.3078 7.00818L12.4989 7.06242L12.5692 7.08215V6.29804C12.5692 5.91954 12.8725 5.61255 13.2473 5.61255C13.4347 5.61255 13.6048 5.68898 13.7268 5.81351C13.8489 5.93804 13.9253 6.10818 13.9253 6.29804V7.46188L14.0659 7.50132C14.077 7.50503 14.0881 7.50996 14.098 7.51735L14.1434 7.5518C14.1717 7.57338 14.2055 7.59918 14.2447 7.62831C14.2645 7.64422 14.285 7.66153 14.3066 7.67976L14.3066 7.67978C14.3385 7.70675 14.3729 7.73574 14.4111 7.76516C14.5381 7.86751 14.6897 7.99943 14.8562 8.15105C14.9005 8.18929 14.9437 8.22873 14.9832 8.2682C15.1977 8.46791 15.4381 8.70217 15.6674 8.96108C15.7315 9.0338 15.7944 9.10777 15.8585 9.18545C15.8812 9.21334 15.9043 9.24107 15.9273 9.2687L15.9274 9.26874L15.9274 9.26878L15.9274 9.2688L15.9274 9.26881L15.9274 9.26882C15.9695 9.31934 16.0114 9.36953 16.0496 9.41972L16.0929 9.47714C16.1577 9.56282 16.2245 9.65113 16.2839 9.74273C16.2989 9.76577 16.3148 9.78903 16.3307 9.81232C16.3515 9.84264 16.3723 9.87302 16.3911 9.903C16.4848 10.0448 16.5674 10.1915 16.6463 10.3382C16.6796 10.406 16.7141 10.48 16.7437 10.5527C16.8313 10.7488 16.9003 10.9485 16.9447 11.1482C16.9583 11.1914 16.9681 11.2382 16.9731 11.2801V11.29C16.9878 11.3492 16.9928 11.4121 16.9977 11.4762C17.0174 11.6808 17.0076 11.8855 16.9632 12.0914C16.9447 12.1789 16.92 12.2615 16.8904 12.3491L16.8804 12.3776C16.854 12.4526 16.827 12.5297 16.7931 12.603C16.7191 12.7744 16.6315 12.9458 16.528 13.106C16.4947 13.1652 16.4552 13.2281 16.4158 13.2873C16.3946 13.3181 16.3732 13.3481 16.3521 13.3774L16.3521 13.3775L16.352 13.3775L16.3518 13.3778C16.3301 13.4082 16.3088 13.4379 16.2888 13.4673C16.2345 13.5413 16.1766 13.6189 16.1174 13.688C16.0644 13.7607 16.0101 13.8335 15.951 13.8976C15.8684 13.9949 15.7895 14.0874 15.7069 14.1762C15.6576 14.2341 15.6045 14.2933 15.5503 14.3463C15.5047 14.3972 15.4583 14.4435 15.4148 14.4868L15.3937 14.5078C15.3111 14.5904 15.2421 14.6545 15.1841 14.7076L15.0485 14.8321C15.0288 14.8493 15.0029 14.8592 14.9758 14.8592H13.9253V16.2068H15.247C15.5429 16.2068 15.824 16.102 16.0508 15.9096L16.0569 15.9044C16.1448 15.8277 16.4772 15.5378 16.8683 15.1058C16.8818 15.091 16.8991 15.0799 16.9188 15.075L20.5694 14.0196C20.6372 13.9999 20.7062 14.0517 20.7062 14.1232ZM6.79188 13.2162L6.84367 13.1348L9.96535 8.25135C10.011 8.17983 10.1182 8.18724 10.1527 8.26489C10.6743 9.43369 11.1243 10.8873 10.9134 11.7922C10.8234 12.1645 10.5769 12.6688 10.2995 13.1348C10.2637 13.2026 10.2243 13.2692 10.1823 13.3333C10.1626 13.3629 10.1293 13.3802 10.0936 13.3802H6.88311C6.79682 13.3802 6.74628 13.2865 6.79188 13.2162Z" fill="black"/>
</g>
<defs>
<clipPath id="clip0_37_1457">
<rect width="24" height="24" fill="white" transform="translate(0.871582 0.812744)"/>
</clipPath>
</defs>
</svg>
