<svg width="45" height="45" viewBox="0 0 45 45" fill="none" xmlns="http://www.w3.org/2000/svg">
<g clip-path="url(#clip0_74_548)">
<path fill-rule="evenodd" clip-rule="evenodd" d="M22.8477 44.854C34.9972 44.854 44.8477 35.0036 44.8477 22.854C44.8477 10.7044 34.9998 0.854004 22.8477 0.854004C10.6981 0.854004 0.847656 10.7044 0.847656 22.854C0.847656 35.0036 10.6981 44.854 22.8477 44.854ZM37.2112 25.2565V26.6737C37.2112 26.755 37.1614 26.8274 37.0891 26.859C36.6461 27.0489 35.1294 27.7451 34.4988 28.622C34.148 29.1103 33.8152 29.6444 33.4808 30.181C32.2812 32.1062 31.0607 34.0648 28.9114 34.0648H17.4449C13.3809 34.0648 10.0876 30.7603 10.0876 26.6827V26.5516C10.0876 26.4431 10.1758 26.355 10.2843 26.355H16.6764C16.8029 26.355 16.8956 26.4725 16.8843 26.5968C16.8391 27.0127 16.916 27.4377 17.1126 27.8242C17.4924 28.5949 18.2789 29.0764 19.1288 29.0764H22.2932V26.6059H19.165C19.0045 26.6059 18.9096 26.4205 19.0023 26.2894C19.0211 26.2605 19.0414 26.2308 19.0627 26.1997C19.0796 26.1749 19.0972 26.1492 19.1152 26.1222C19.4114 25.7018 19.834 25.0485 20.2545 24.3049C20.5415 23.8031 20.8195 23.2674 21.0433 22.7295C21.0852 22.6393 21.1194 22.5472 21.153 22.4566L21.153 22.4566L21.1608 22.4356C21.1766 22.3912 21.1925 22.3476 21.2082 22.3045L21.2084 22.3041C21.2534 22.1807 21.2968 22.0618 21.3303 21.9429C21.3673 21.8321 21.3982 21.7168 21.428 21.6055L21.4479 21.5315C21.5541 21.0749 21.5993 20.5912 21.5993 20.0894C21.5993 19.8928 21.5903 19.6871 21.5722 19.4904C21.5632 19.2757 21.536 19.061 21.5089 18.8463C21.4908 18.6564 21.4569 18.4688 21.4207 18.2722C21.3755 17.9851 21.3123 17.7003 21.2399 17.4132L21.2151 17.3048C21.1989 17.2461 21.1835 17.1882 21.1682 17.1306L21.1682 17.1306C21.1322 16.9953 21.0967 16.8618 21.0523 16.7239C20.8738 16.1068 20.6681 15.5055 20.4511 14.9427C20.3722 14.7197 20.2821 14.5056 20.192 14.2916L20.1911 14.2895C20.0864 14.0356 19.9802 13.7998 19.8792 13.5756C19.8517 13.5144 19.8245 13.454 19.7979 13.3944C19.7346 13.2679 19.6803 13.1526 19.6261 13.035C19.5651 12.9017 19.5018 12.7684 19.4385 12.6417C19.4208 12.6037 19.4021 12.5667 19.3837 12.5304L19.3836 12.5302C19.3549 12.4737 19.3271 12.4187 19.3051 12.3638L18.9186 11.6495C18.8643 11.5523 18.9548 11.437 19.061 11.4664L21.4795 12.1219H21.4863L21.4929 12.1235L21.4953 12.1241L21.8141 12.2123L22.1644 12.3117L22.2932 12.3479V10.9104C22.2932 10.2165 22.8493 9.65365 23.5364 9.65365C23.88 9.65365 24.1919 9.79376 24.4156 10.0221C24.6394 10.2504 24.7796 10.5623 24.7796 10.9104V13.0441L25.0372 13.1164C25.0576 13.1232 25.0779 13.1322 25.096 13.1458C25.1199 13.1637 25.1477 13.1849 25.1792 13.2089L25.1793 13.2089C25.2312 13.2485 25.2932 13.2958 25.365 13.3492C25.4014 13.3784 25.439 13.4101 25.4785 13.4435C25.5371 13.493 25.6 13.5462 25.6701 13.6001C25.9029 13.7877 26.1809 14.0296 26.4861 14.3076C26.5674 14.3777 26.6466 14.45 26.7189 14.5223C27.1122 14.8885 27.5529 15.318 27.9734 15.7926C28.0909 15.9259 28.2062 16.0616 28.3237 16.204C28.3652 16.255 28.4075 16.3058 28.4497 16.3564L28.45 16.3567L28.45 16.3568C28.5272 16.4494 28.604 16.5414 28.674 16.6335C28.7002 16.6683 28.7267 16.7034 28.7534 16.7387C28.8722 16.8958 28.9946 17.0577 29.1035 17.2257C29.131 17.2679 29.1602 17.3105 29.1894 17.3532C29.2275 17.4088 29.2656 17.4645 29.3002 17.5195C29.4719 17.7794 29.6234 18.0484 29.768 18.3173C29.829 18.4417 29.8924 18.5773 29.9466 18.7107C30.1071 19.07 30.2337 19.4362 30.315 19.8024C30.3399 19.8815 30.358 19.9674 30.367 20.0442V20.0623C30.3941 20.1708 30.4031 20.2861 30.4122 20.4036C30.4484 20.7788 30.4303 21.154 30.3489 21.5315C30.315 21.692 30.2698 21.8434 30.2156 22.0039L30.1971 22.0562L30.1971 22.0563C30.1488 22.1938 30.0992 22.3352 30.037 22.4695C29.9014 22.7837 29.7409 23.0979 29.551 23.3917C29.49 23.5002 29.4177 23.6155 29.3453 23.724C29.3067 23.7803 29.2675 23.835 29.2291 23.8887L29.2289 23.8889L29.2286 23.8893L29.2285 23.8895C29.1885 23.9453 29.1493 24 29.1125 24.054C29.0131 24.1896 28.9069 24.332 28.7984 24.4586C28.7012 24.5919 28.6017 24.7253 28.4932 24.8428C28.3418 25.0214 28.1971 25.1909 28.0457 25.3537C27.9553 25.4599 27.8581 25.5684 27.7586 25.6656C27.6751 25.7588 27.5899 25.8437 27.5103 25.9231L27.4716 25.9617C27.3201 26.1131 27.1935 26.2306 27.0873 26.3278L26.8387 26.5561C26.8025 26.5878 26.7551 26.6059 26.7053 26.6059H24.7796V29.0764H27.2026C27.7451 29.0764 28.2604 28.8842 28.6763 28.5316L28.6874 28.522C28.8486 28.3814 29.4579 27.8499 30.1749 27.0579C30.1997 27.0308 30.2314 27.0105 30.2675 27.0014L36.9603 25.0666C37.0846 25.0304 37.2112 25.1254 37.2112 25.2565ZM11.7015 23.5936L11.7965 23.4445L17.5196 14.4914C17.6032 14.3603 17.7998 14.3739 17.8631 14.5163C18.8192 16.6591 19.6442 19.324 19.2577 20.983C19.0927 21.6656 18.6407 22.5901 18.1321 23.4445C18.0665 23.5688 17.9942 23.6909 17.9174 23.8084C17.8812 23.8626 17.8202 23.8943 17.7546 23.8943H11.8688C11.7106 23.8943 11.6179 23.7225 11.7015 23.5936Z" fill="white"/>
</g>
<defs>
<clipPath id="clip0_74_548">
<rect width="44" height="44" fill="white" transform="translate(0.847656 0.854004)"/>
</clipPath>
</defs>
</svg>
