<svg width="64" height="45" viewBox="0 0 64 45" fill="none" xmlns="http://www.w3.org/2000/svg">
<path d="M32.0002 0.854004C14.4099 0.854004 0.152344 10.7046 0.152344 22.854C0.152344 35.0034 14.4099 44.854 32.0002 44.854C49.5906 44.854 63.8481 35.0034 63.8481 22.854C63.8481 10.7046 49.5906 0.854004 32.0002 0.854004ZM32.0002 37.8957C17.9817 37.8957 6.61377 30.2258 6.61377 20.7646C6.61377 11.3035 17.9817 3.63623 32.0002 3.63623C46.0188 3.63623 57.3867 11.3062 57.3867 20.7673C57.3867 30.2285 46.0215 37.8984 32.0002 37.8984V37.8957Z" fill="white"/>
<path d="M27.8347 24.261L14.4473 5.83276L36.1089 12.8743L27.8347 15.5598V24.261Z" fill="white"/>
<path d="M47.9714 24.5635L34.584 6.13525L56.2483 13.1741L47.9714 15.8623V24.5635Z" fill="white"/>
<path d="M42.9038 38.731L29.5137 20.3027L51.178 27.3416L42.9038 30.0298V38.731Z" fill="white"/>
<path d="M23.8816 38.6272L10.4941 20.199L32.1558 27.2378L23.8816 29.926V38.6272Z" fill="white"/>
</svg>
