<svg width="35" height="25" viewBox="0 0 35 25" fill="none" xmlns="http://www.w3.org/2000/svg">
<path d="M17.5 0.812744C7.90527 0.812744 0.128418 6.18579 0.128418 12.8127C0.128418 19.4397 7.90527 24.8127 17.5 24.8127C27.0947 24.8127 34.8716 19.4397 34.8716 12.8127C34.8716 6.18579 27.0947 0.812744 17.5 0.812744ZM17.5 21.0173C9.85352 21.0173 3.65283 16.8337 3.65283 11.6731C3.65283 6.51245 9.85352 2.33032 17.5 2.33032C25.1465 2.33032 31.3472 6.51392 31.3472 11.6746C31.3472 16.8352 25.148 21.0188 17.5 21.0188V21.0173Z" fill="black"/>
<path d="M15.2277 13.5801L7.92542 3.52832L19.7408 7.36914L15.2277 8.83398V13.5801Z" fill="black"/>
<path d="M26.2119 13.7451L18.9097 3.69336L30.7266 7.53271L26.2119 8.99902V13.7451Z" fill="black"/>
<path d="M23.4477 21.4729L16.144 11.4211L27.9609 15.2605L23.4477 16.7268V21.4729Z" fill="black"/>
<path d="M13.0714 21.4163L5.7691 11.3645L17.5845 15.2039L13.0714 16.6702V21.4163Z" fill="black"/>
</svg>
