<svg width="45" height="45" viewBox="0 0 45 45" fill="none" xmlns="http://www.w3.org/2000/svg">
<g clip-path="url(#clip0_74_553)">
<path d="M44.1523 22.854C44.1523 10.7038 34.3026 0.854004 22.1523 0.854004C10.0021 0.854004 0.152344 10.7038 0.152344 22.854C0.152344 35.0043 10.0021 44.854 22.1523 44.854C34.3026 44.854 44.1523 35.0043 44.1523 22.854Z" fill="url(#paint0_radial_74_553)"/>
<path d="M22.1521 1.57397C33.8879 1.57397 43.4321 11.1181 43.4321 22.854C43.4321 34.5898 33.8879 44.134 22.1521 44.134C10.4162 44.134 0.87207 34.5898 0.87207 22.854C0.87207 11.1181 10.4162 1.57397 22.1521 1.57397Z" fill="url(#paint1_radial_74_553)" stroke="white"/>
</g>
<defs>
<radialGradient id="paint0_radial_74_553" cx="0" cy="0" r="1" gradientUnits="userSpaceOnUse" gradientTransform="translate(29.3938 11.5713) scale(33.128)">
<stop offset="0.1562" stop-color="white"/>
<stop offset="0.3958" stop-color="white" stop-opacity="0.63"/>
<stop offset="0.7292" stop-color="white" stop-opacity="0.29"/>
<stop offset="0.9063" stop-color="white" stop-opacity="0.22"/>
<stop offset="1" stop-color="white" stop-opacity="0.41"/>
</radialGradient>
<radialGradient id="paint1_radial_74_553" cx="0" cy="0" r="1" gradientUnits="userSpaceOnUse" gradientTransform="translate(29.3211 11.6841) scale(32.7967)">
<stop offset="0.1562" stop-color="white"/>
<stop offset="0.3958" stop-color="white" stop-opacity="0.63"/>
<stop offset="0.7292" stop-color="white" stop-opacity="0.29"/>
<stop offset="0.9063" stop-color="white" stop-opacity="0.22"/>
<stop offset="1" stop-color="white" stop-opacity="0.41"/>
</radialGradient>
<clipPath id="clip0_74_553">
<rect width="44" height="44" fill="white" transform="translate(0.152344 0.854004)"/>
</clipPath>
</defs>
</svg>
